<svg width="40" height="39" viewBox="0 0 40 39" fill="none" xmlns="http://www.w3.org/2000/svg">
<path d="M19.8454 33.8545C19.6332 33.8557 19.4229 33.8151 19.2265 33.7348C19.0301 33.6546 18.8514 33.5364 18.7008 33.387L6.17462 20.8447C4.60339 19.257 3.72205 17.1135 3.72205 14.8798C3.72205 12.6461 4.60339 10.5027 6.17462 8.915C7.75815 7.33595 9.90318 6.44922 12.1395 6.44922C14.3757 6.44922 16.5208 7.33595 18.1043 8.915L19.8454 10.6561L21.5865 8.915C23.17 7.33595 25.315 6.44922 27.5513 6.44922C29.7876 6.44922 31.9326 7.33595 33.5162 8.915C35.0874 10.5027 35.9688 12.6461 35.9688 14.8798C35.9688 17.1135 35.0874 19.257 33.5162 20.8447L20.99 33.387C20.8394 33.5364 20.6607 33.6546 20.4643 33.7348C20.2679 33.8151 20.0576 33.8557 19.8454 33.8545Z" fill="#E51F23"/>
</svg>
