<svg width="32" height="32" viewBox="0 0 32 32" fill="none" xmlns="http://www.w3.org/2000/svg">
<path d="M16.2343 22.1888C15.9011 22.1872 15.5724 22.1113 15.2721 21.9668C14.9719 21.8224 14.7075 21.6128 14.4983 21.3535L9.0033 14.6968C8.6822 14.2961 8.48014 13.8132 8.42014 13.3032C8.36014 12.7932 8.44462 12.2766 8.66394 11.8123C8.84181 11.4087 9.13209 11.0649 9.50009 10.8219C9.8681 10.5789 10.2983 10.4469 10.7393 10.4418H21.7293C22.1703 10.4469 22.6004 10.5789 22.9685 10.8219C23.3365 11.0649 23.6267 11.4087 23.8046 11.8123C24.0239 12.2766 24.1084 12.7932 24.0484 13.3032C23.9884 13.8132 23.7863 14.2961 23.4652 14.6968L17.9702 21.3535C17.761 21.6128 17.4967 21.8224 17.1964 21.9668C16.8961 22.1113 16.5675 22.1872 16.2343 22.1888Z" fill="white"/>
</svg>
