<svg width="36" height="36" viewBox="0 0 36 36" fill="none" xmlns="http://www.w3.org/2000/svg">
<path d="M18.1 17.6C18.91 17.6 19.5666 16.9433 19.5666 16.1333C19.5666 15.3233 18.91 14.6666 18.1 14.6666C17.2899 14.6666 16.6333 15.3233 16.6333 16.1333C16.6333 16.9433 17.2899 17.6 18.1 17.6Z" fill="white"/>
<path d="M23.9667 17.6C24.7767 17.6 25.4333 16.9433 25.4333 16.1333C25.4333 15.3233 24.7767 14.6666 23.9667 14.6666C23.1566 14.6666 22.5 15.3233 22.5 16.1333C22.5 16.9433 23.1566 17.6 23.9667 17.6Z" fill="white"/>
<path d="M12.2334 17.6C13.0434 17.6 13.7001 16.9433 13.7001 16.1333C13.7001 15.3233 13.0434 14.6666 12.2334 14.6666C11.4234 14.6666 10.7667 15.3233 10.7667 16.1333C10.7667 16.9433 11.4234 17.6 12.2334 17.6Z" fill="white"/>
<path d="M28.3667 4.40002H7.83335C6.6664 4.40002 5.54724 4.86359 4.72208 5.68875C3.89692 6.51391 3.43335 7.63307 3.43335 8.80002V30.8C3.4338 31.0599 3.50329 31.315 3.63472 31.5392C3.76615 31.7634 3.9548 31.9487 4.18135 32.076C4.40055 32.2003 4.64806 32.2659 4.90002 32.2667C5.16326 32.2666 5.42163 32.1957 5.64802 32.0614L12.2333 28.072C12.4768 27.9271 12.7569 27.8558 13.04 27.8667H28.3667C29.5336 27.8667 30.6528 27.4031 31.478 26.578C32.3031 25.7528 32.7667 24.6336 32.7667 23.4667V8.80002C32.7667 7.63307 32.3031 6.51391 31.478 5.68875C30.6528 4.86359 29.5336 4.40002 28.3667 4.40002ZM29.8334 23.4667C29.8334 23.8557 29.6788 24.2287 29.4038 24.5038C29.1287 24.7788 28.7557 24.9334 28.3667 24.9334H13.04C12.239 24.9327 11.4529 25.1508 10.7667 25.564L6.36668 28.204V8.80002C6.36668 8.41104 6.52121 8.03799 6.79626 7.76293C7.07131 7.48788 7.44437 7.33336 7.83335 7.33336H28.3667C28.7557 7.33336 29.1287 7.48788 29.4038 7.76293C29.6788 8.03799 29.8334 8.41104 29.8334 8.80002V23.4667Z" fill="white"/>
</svg>
