<svg width="32" height="32" viewBox="0 0 32 32" fill="none" xmlns="http://www.w3.org/2000/svg">
<path d="M16.2358 3.18201C13.6541 3.18201 11.1303 3.94759 8.98365 5.38193C6.837 6.81628 5.16389 8.85496 4.1759 11.2402C3.18791 13.6254 2.9294 16.2501 3.43308 18.7822C3.93675 21.3144 5.17998 23.6403 7.00556 25.4658C8.83113 27.2914 11.1571 28.5347 13.6892 29.0383C16.2213 29.542 18.846 29.2835 21.2312 28.2955C23.6164 27.3075 25.6551 25.6344 27.0895 23.4878C28.5238 21.3411 29.2894 18.8173 29.2894 16.2356C29.2894 14.5214 28.9518 12.8239 28.2958 11.2402C27.6398 9.65646 26.6782 8.21745 25.4661 7.00531C24.254 5.79317 22.8149 4.83165 21.2312 4.17565C19.6475 3.51965 17.95 3.18201 16.2358 3.18201ZM17.5412 21.457C17.5412 21.8032 17.4037 22.1352 17.1589 22.38C16.9141 22.6248 16.582 22.7624 16.2358 22.7624C15.8896 22.7624 15.5576 22.6248 15.3128 22.38C15.068 22.1352 14.9305 21.8032 14.9305 21.457V14.9302C14.9305 14.584 15.068 14.252 15.3128 14.0072C15.5576 13.7624 15.8896 13.6249 16.2358 13.6249C16.582 13.6249 16.9141 13.7624 17.1589 14.0072C17.4037 14.252 17.5412 14.584 17.5412 14.9302V21.457ZM16.2358 12.3195C15.9777 12.3195 15.7253 12.2429 15.5106 12.0995C15.2959 11.9561 15.1286 11.7522 15.0298 11.5137C14.931 11.2752 14.9052 11.0127 14.9556 10.7595C15.0059 10.5063 15.1302 10.2737 15.3128 10.0911C15.4954 9.90857 15.728 9.78424 15.9812 9.73387C16.2344 9.68351 16.4968 9.70936 16.7354 9.80816C16.9739 9.90696 17.1778 10.0743 17.3212 10.2889C17.4646 10.5036 17.5412 10.756 17.5412 11.0142C17.5412 11.3604 17.4037 11.6924 17.1589 11.9372C16.9141 12.182 16.582 12.3195 16.2358 12.3195Z" fill="#FFF9FA"/>
</svg>
