<svg width="36" height="36" viewBox="0 0 36 36" fill="none" xmlns="http://www.w3.org/2000/svg">
<path d="M29.4067 16.5333H5.79336C5.02384 16.5333 4.40002 17.1571 4.40002 17.9267V18.0733C4.40002 18.8428 5.02384 19.4667 5.79336 19.4667H29.4067C30.1762 19.4667 30.8 18.8428 30.8 18.0733V17.9267C30.8 17.1571 30.1762 16.5333 29.4067 16.5333Z" fill="#FFFCFC"/>
<path d="M29.4067 23.8666H5.79336C5.02384 23.8666 4.40002 24.4905 4.40002 25.26V25.4066C4.40002 26.1762 5.02384 26.8 5.79336 26.8H29.4067C30.1762 26.8 30.8 26.1762 30.8 25.4066V25.26C30.8 24.4905 30.1762 23.8666 29.4067 23.8666Z" fill="#FFFCFC"/>
<path d="M29.4067 9.19995H5.79336C5.02384 9.19995 4.40002 9.82377 4.40002 10.5933V10.74C4.40002 11.5095 5.02384 12.1333 5.79336 12.1333H29.4067C30.1762 12.1333 30.8 11.5095 30.8 10.74V10.5933C30.8 9.82377 30.1762 9.19995 29.4067 9.19995Z" fill="#FFFCFC"/>
</svg>
