<svg width="36" height="36" viewBox="0 0 36 36" fill="none" xmlns="http://www.w3.org/2000/svg">
<path d="M30.5958 22.308L27.9558 19.6533V13.112C27.991 10.6829 27.146 8.3232 25.5771 6.46849C24.0081 4.61378 21.8211 3.38937 19.4198 3.02133C18.0262 2.8378 16.6095 2.95359 15.2642 3.36097C13.9189 3.76836 12.6759 4.45796 11.6182 5.38378C10.5605 6.3096 9.71247 7.45034 9.13059 8.72988C8.54871 10.0094 8.2464 11.3984 8.24383 12.804V19.6533L5.60383 22.308C5.27223 22.6451 5.04735 23.0725 4.95732 23.5368C4.8673 24.001 4.91611 24.4815 5.09765 24.9181C5.2792 25.3548 5.58542 25.7282 5.97805 25.9918C6.37068 26.2554 6.83228 26.3973 7.30516 26.4H12.2332V26.8987C12.3017 28.3876 12.9576 29.7887 14.0573 30.7949C15.157 31.8011 16.6107 32.3303 18.0998 32.2667C19.589 32.3303 21.0427 31.8011 22.1424 30.7949C23.242 29.7887 23.898 28.3876 23.9665 26.8987V26.4H28.8945C29.3674 26.3973 29.829 26.2554 30.2216 25.9918C30.6142 25.7282 30.9205 25.3548 31.102 24.9181C31.2836 24.4815 31.3324 24.001 31.2423 23.5368C31.1523 23.0725 30.9274 22.6451 30.5958 22.308ZM21.0332 26.8987C20.9518 27.6041 20.6014 28.251 20.055 28.7046C19.5086 29.1581 18.8082 29.3833 18.0998 29.3333C17.3915 29.3833 16.6911 29.1581 16.1447 28.7046C15.5982 28.251 15.2478 27.6041 15.1665 26.8987V26.4H21.0332V26.8987ZM8.58116 23.4667L10.3118 21.736C10.5863 21.4631 10.8041 21.1386 10.9527 20.7811C11.1012 20.4237 11.1775 20.0404 11.1772 19.6533V12.804C11.178 11.8146 11.3904 10.8368 11.8002 9.93624C12.21 9.03568 12.8077 8.23321 13.5532 7.58266C14.2886 6.91633 15.16 6.41776 16.1071 6.12147C17.0543 5.82518 18.0545 5.73823 19.0385 5.86666C20.7347 6.14207 22.2743 7.02095 23.3738 8.34149C24.4734 9.66203 25.0589 11.3353 25.0225 13.0533V19.6533C25.0203 20.0394 25.0943 20.4221 25.2402 20.7795C25.3862 21.1368 25.6013 21.4619 25.8732 21.736L27.6185 23.4667H8.58116Z" fill="#FFFCFC"/>
</svg>
