<svg width="32" height="32" viewBox="0 0 32 32" fill="none" xmlns="http://www.w3.org/2000/svg">
<path d="M24.0679 5.79284H22.7626V4.48749C22.7626 4.14128 22.625 3.80926 22.3802 3.56446C22.1354 3.31966 21.8034 3.18213 21.4572 3.18213C21.111 3.18213 20.779 3.31966 20.5342 3.56446C20.2894 3.80926 20.1518 4.14128 20.1518 4.48749V5.79284H12.3197V4.48749C12.3197 4.14128 12.1822 3.80926 11.9374 3.56446C11.6926 3.31966 11.3605 3.18213 11.0143 3.18213C10.6681 3.18213 10.3361 3.31966 10.0913 3.56446C9.84651 3.80926 9.70898 4.14128 9.70898 4.48749V5.79284H8.40362C7.36501 5.79284 6.36895 6.20543 5.63454 6.93983C4.90013 7.67424 4.48755 8.67031 4.48755 9.70891V25.3732C4.48755 26.4118 4.90013 27.4079 5.63454 28.1423C6.36895 28.8767 7.36501 29.2893 8.40362 29.2893H24.0679C25.1065 29.2893 26.1026 28.8767 26.837 28.1423C27.5714 27.4079 27.984 26.4118 27.984 25.3732V9.70891C27.984 8.67031 27.5714 7.67424 26.837 6.93983C26.1026 6.20543 25.1065 5.79284 24.0679 5.79284ZM8.40362 8.40356H9.70898V9.70891C9.70898 10.0551 9.84651 10.3871 10.0913 10.6319C10.3361 10.8767 10.6681 11.0143 11.0143 11.0143C11.3605 11.0143 11.6926 10.8767 11.9374 10.6319C12.1822 10.3871 12.3197 10.0551 12.3197 9.70891V8.40356H20.1518V9.70891C20.1518 10.0551 20.2894 10.3871 20.5342 10.6319C20.779 10.8767 21.111 11.0143 21.4572 11.0143C21.8034 11.0143 22.1354 10.8767 22.3802 10.6319C22.625 10.3871 22.7626 10.0551 22.7626 9.70891V8.40356H24.0679C24.4141 8.40356 24.7461 8.54109 24.9909 8.78589C25.2357 9.03069 25.3733 9.36271 25.3733 9.70891V14.9303H7.09826V9.70891C7.09826 9.36271 7.23579 9.03069 7.48059 8.78589C7.7254 8.54109 8.05742 8.40356 8.40362 8.40356ZM24.0679 26.6786H8.40362C8.05742 26.6786 7.7254 26.541 7.48059 26.2962C7.23579 26.0514 7.09826 25.7194 7.09826 25.3732V17.5411H25.3733V25.3732C25.3733 25.7194 25.2357 26.0514 24.9909 26.2962C24.7461 26.541 24.4141 26.6786 24.0679 26.6786Z" fill="white"/>
<path d="M11.0141 22.7624C11.735 22.7624 12.3195 22.178 12.3195 21.4571C12.3195 20.7362 11.735 20.1517 11.0141 20.1517C10.2932 20.1517 9.70874 20.7362 9.70874 21.4571C9.70874 22.178 10.2932 22.7624 11.0141 22.7624Z" fill="white"/>
<path d="M21.4571 20.1517H16.2357C15.8895 20.1517 15.5574 20.2893 15.3126 20.5341C15.0678 20.7789 14.9303 21.1109 14.9303 21.4571C14.9303 21.8033 15.0678 22.1353 15.3126 22.3801C15.5574 22.6249 15.8895 22.7624 16.2357 22.7624H21.4571C21.8033 22.7624 22.1353 22.6249 22.3801 22.3801C22.6249 22.1353 22.7624 21.8033 22.7624 21.4571C22.7624 21.1109 22.6249 20.7789 22.3801 20.5341C22.1353 20.2893 21.8033 20.1517 21.4571 20.1517Z" fill="white"/>
</svg>
