<svg width="36" height="36" viewBox="0 0 36 36" fill="none" xmlns="http://www.w3.org/2000/svg">
<path d="M30.3493 15.3306L19.0413 3.77325C18.905 3.63579 18.7427 3.52667 18.564 3.45221C18.3853 3.37775 18.1936 3.33942 18 3.33942C17.8064 3.33942 17.6147 3.37775 17.4359 3.45221C17.2572 3.52667 17.095 3.63579 16.9586 3.77325L5.65064 15.3453C5.37701 15.6211 5.16091 15.9485 5.01488 16.3086C4.86885 16.6686 4.7958 17.0541 4.79997 17.4426V29.7332C4.79884 30.4841 5.08564 31.2067 5.60132 31.7524C6.11701 32.2981 6.8223 32.6253 7.57197 32.6666H28.428C29.1776 32.6253 29.8829 32.2981 30.3986 31.7524C30.9143 31.2067 31.2011 30.4841 31.2 29.7332V17.4426C31.2011 16.6549 30.8961 15.8976 30.3493 15.3306ZM15.0666 29.7332V20.9333H20.9333V29.7332H15.0666ZM28.2666 29.7332H23.8666V19.4666C23.8666 19.0776 23.7121 18.7045 23.4371 18.4295C23.162 18.1544 22.789 17.9999 22.4 17.9999H13.6C13.211 17.9999 12.8379 18.1544 12.5629 18.4295C12.2878 18.7045 12.1333 19.0776 12.1333 19.4666V29.7332H7.73331V17.3839L18 6.89725L28.2666 17.4426V29.7332Z" fill="#FFFCFC"/>
</svg>
