<svg width="32" height="32" viewBox="0 0 32 32" fill="none" xmlns="http://www.w3.org/2000/svg">
<path d="M26.6422 7.68844L21.4208 5.3388H21.3555H21.1989H21.0422H20.7159H20.5854H20.4157H20.3504L15.6642 7.44042L10.9779 5.3388H10.9127L10.756 5.22131H10.5994H10.273H10.1425H9.97281L4.75138 7.57096C4.49095 7.67075 4.26932 7.85133 4.11898 8.08624C3.96864 8.32114 3.89749 8.59803 3.91595 8.87631V24.8017C3.91631 25.0201 3.97148 25.2349 4.07638 25.4265C4.18129 25.618 4.33259 25.7802 4.51641 25.8982C4.72652 26.0339 4.97119 26.1064 5.22131 26.107C5.40601 26.1062 5.58843 26.0661 5.7565 25.9895L10.4427 23.8879L15.129 25.9895H15.1942C15.3414 26.0583 15.5018 26.094 15.6642 26.094C15.8266 26.094 15.987 26.0583 16.1341 25.9895H16.1994L20.8856 23.8879L25.5718 25.9895C25.7399 26.0661 25.9223 26.1062 26.107 26.107C26.3571 26.1064 26.6018 26.0339 26.8119 25.8982C26.9957 25.7802 27.147 25.618 27.252 25.4265C27.3569 25.2349 27.412 25.0201 27.4124 24.8017V8.87631C27.4119 8.62521 27.3389 8.37959 27.2023 8.1689C27.0657 7.95821 26.8712 7.79139 26.6422 7.68844ZM6.52667 9.71174L9.13738 8.54997V21.6035L6.52667 22.7653V9.71174ZM11.7481 8.54997L14.3588 9.71174V22.7653L11.7481 21.6035V8.54997ZM16.9695 9.71174L19.5802 8.54997V21.6035L16.9695 22.7653V9.71174ZM24.8017 22.7653L22.191 21.6035V8.54997L24.8017 9.71174V22.7653Z" fill="white"/>
</svg>
